ISO-10303-21;
HEADER;
FILE_DESCRIPTION (( 'STEP AP214' ),
    '1' );
FILE_NAME ('Same_Sky_CPG-02-SMT-B.step',
    '2024-10-01T18:27:10',
    ( '' ),
    ( '' ),
    'SwSTEP 2.0',
    'SolidWorks 2024',
    '' );
FILE_SCHEMA (( 'AUTOMOTIVE_DESIGN' ));
ENDSEC;

DATA;
#1 = CARTESIAN_POINT ( 'NONE',  ( 0.000000000000000000, 0.01968503937007873988, 0.000000000000000000 ) ) ;
#2 = CARTESIAN_POINT ( 'NONE',  ( 1.631520329549489917E-17, 0.3149606299212598381, 0.000000000000000000 ) ) ;
#3 = EDGE_CURVE ( 'NONE', #222, #516, #111, .T. ) ;
#4 = UNCERTAINTY_MEASURE_WITH_UNIT (LENGTH_MEASURE( 1.000000000000000082E-05 ), #561, 'distance_accuracy_value', 'NONE');
#5 = APPLICATION_CONTEXT ( 'automotive_design' ) ;
#6 = CARTESIAN_POINT ( 'NONE',  ( -0.05955291673228347432, 0.2345671408267716584, -0.02977645834645669537 ) ) ;
#7 = AXIS2_PLACEMENT_3D ( 'NONE', #284, #14, #234 ) ;
#8 = ORIENTED_EDGE ( 'NONE', *, *, #59, .T. ) ;
#9 = EDGE_CURVE ( 'NONE', #525, #439, #528, .T. ) ;
#10 = AXIS2_PLACEMENT_3D ( 'NONE', #232, #139, #408 ) ;
#11 = CARTESIAN_POINT ( 'NONE',  ( -0.05118110236232489840, 0.2362204724556795921, 0.02559055116665623353 ) ) ;
#12 = DIRECTION ( 'NONE',  ( -9.637352644315592778E-16, -1.000000000000000000, 0.000000000000000000 ) ) ;
#13 = PRESENTATION_STYLE_ASSIGNMENT (( #559 ) ) ;
#14 = DIRECTION ( 'NONE',  ( 0.000000000000000000, -1.000000000000000000, 0.000000000000000000 ) ) ;
#15 = EDGE_CURVE ( 'NONE', #426, #455, #244, .T. ) ;
#16 = APPLICATION_PROTOCOL_DEFINITION ( 'draft international standard', 'automotive_design', 1998, #5 ) ;
#17 = ORIENTED_EDGE ( 'NONE', *, *, #466, .T. ) ;
#18 = CARTESIAN_POINT ( 'NONE',  ( 0.05901578082677166187, 0.2318904196062991918, 0.02950789043307087620 ) ) ;
#19 = ADVANCED_FACE ( 'NONE', ( #508, #96 ), #147, .F. ) ;
#20 = DIRECTION ( 'NONE',  ( 1.000000000000000000, -9.637352644315592778E-16, 0.000000000000000000 ) ) ;
#21 = EDGE_LOOP ( 'NONE', ( #209, #403, #166, #400 ) ) ;
#22 = CYLINDRICAL_SURFACE ( 'NONE', #387, 0.02952755905511811677 ) ;
#23 = CIRCLE ( 'NONE', #442, 0.02952755906985281287 ) ;
#24 = EDGE_LOOP ( 'NONE', ( #322, #109, #115, #494 ) ) ;
#25 = CARTESIAN_POINT ( 'NONE',  ( 0.000000000000000000, 0.000000000000000000, -0.03937007874015747977 ) ) ;
#26 = CARTESIAN_POINT ( 'NONE',  ( 0.000000000000000000, 0.2980314960629921739, 0.000000000000000000 ) ) ;
#27 = ORIENTED_EDGE ( 'NONE', *, *, #568, .T. ) ;
#28 = CARTESIAN_POINT ( 'NONE',  ( 0.000000000000000000, 0.2362204724497856956, -0.02559055116881802164 ) ) ;
#29 = VERTEX_POINT ( 'NONE', #108 ) ;
#30 = CARTESIAN_POINT ( 'NONE',  ( 0.000000000000000000, 0.2322834645669291653, 0.000000000000000000 ) ) ;
#31 = CYLINDRICAL_SURFACE ( 'NONE', #122, 0.02952755905511811677 ) ;
#32 = AXIS2_PLACEMENT_3D ( 'NONE', #586, #231, #175 ) ;
#33 = ORIENTED_EDGE ( 'NONE', *, *, #50, .T. ) ;
#34 = DIRECTION ( 'NONE',  ( 0.000000000000000000, 0.000000000000000000, -1.000000000000000000 ) ) ;
#35 = PRODUCT_DEFINITION_FORMATION_WITH_SPECIFIED_SOURCE ( 'ANY', '', #326, .NOT_KNOWN. ) ;
#36 = DIRECTION ( 'NONE',  ( 0.000000000000000000, -1.000000000000000000, 0.000000000000000000 ) ) ;
#37 = ORIENTED_EDGE ( 'NONE', *, *, #435, .T. ) ;
#38 = DIRECTION ( 'NONE',  ( 9.637352644315592778E-16, 1.000000000000000000, 0.000000000000000000 ) ) ;
#39 = EDGE_CURVE ( 'NONE', #341, #29, #481, .T. ) ;
#40 = ORIENTED_EDGE ( 'NONE', *, *, #99, .F. ) ;
#41 = CARTESIAN_POINT ( 'NONE',  ( 3.664297509259822920E-18, 0.05617702578739911662, 0.02992125984251989626 ) ) ;
#42 = CARTESIAN_POINT ( 'NONE',  ( 0.000000000000000000, 0.2322834645669291653, 0.000000000000000000 ) ) ;
#43 = ORIENTED_EDGE ( 'NONE', *, *, #113, .F. ) ;
#44 = CARTESIAN_POINT ( 'NONE',  ( 0.000000000000000000, 0.01968503937007873988, -0.02952755905511811677 ) ) ;
#45 = CIRCLE ( 'NONE', #270, 0.02952755905511811677 ) ;
#46 = CARTESIAN_POINT ( 'NONE',  ( -0.05039501248031496433, 0.2362008038188976589, 0.02519750622047244384 ) ) ;
#47 = ORIENTED_EDGE ( 'NONE', *, *, #239, .F. ) ;
#48 = CARTESIAN_POINT ( 'NONE',  ( 0.000000000000000000, 0.06090143523622046362, 0.000000000000000000 ) ) ;
#49 = DIRECTION ( 'NONE',  ( 0.000000000000000000, 0.000000000000000000, -1.000000000000000000 ) ) ;
#50 = EDGE_CURVE ( 'NONE', #525, #544, #282, .T. ) ;
#51 =( NAMED_UNIT ( * ) PLANE_ANGLE_UNIT ( ) SI_UNIT ( $, .RADIAN. ) );
#52 = CARTESIAN_POINT ( 'NONE',  ( 3.616083068348484413E-18, 0.2322834645669291653, 0.02952755905511811677 ) ) ;
#53 = DIRECTION ( 'NONE',  ( 0.000000000000000000, -1.000000000000000000, 0.000000000000000000 ) ) ;
#54 = AXIS2_PLACEMENT_3D ( 'NONE', #535, #476, #440 ) ;
#55 = CYLINDRICAL_SURFACE ( 'NONE', #554, 0.02952755905511811677 ) ;
#56 = DIRECTION ( 'NONE',  ( 0.000000000000000000, 0.000000000000000000, -1.000000000000000000 ) ) ;
#57 = AXIS2_PLACEMENT_3D ( 'NONE', #1, #248, #102 ) ;
#58 = AXIS2_PLACEMENT_3D ( 'NONE', #350, #485, #265 ) ;
#59 = EDGE_CURVE ( 'NONE', #428, #344, #431, .T. ) ;
#60 = EDGE_LOOP ( 'NONE', ( #119, #475 ) ) ;
#61 = DIRECTION ( 'NONE',  ( 0.000000000000000000, 0.000000000000000000, -1.000000000000000000 ) ) ;
#62 = DIRECTION ( 'NONE',  ( 0.000000000000000000, -1.000000000000000000, 0.000000000000000000 ) ) ;
#63 = ORIENTED_EDGE ( 'NONE', *, *, #258, .F. ) ;
#64 = DIRECTION ( 'NONE',  ( 0.000000000000000000, 1.000000000000000000, 0.000000000000000000 ) ) ;
#65 = CARTESIAN_POINT ( 'NONE',  ( -0.0007874015748031345250, 0.3149606299212598381, 1.133039361415858254E-18 ) ) ;
#66 = ORIENTED_EDGE ( 'NONE', *, *, #522, .T. ) ;
#67 = CARTESIAN_POINT ( 'NONE',  ( 4.821444091131311524E-18, 0.01968503937007873988, 0.03937007874015747977 ) ) ;
#68 = AXIS2_PLACEMENT_3D ( 'NONE', #588, #126, #366 ) ;
#69 = AXIS2_PLACEMENT_3D ( 'NONE', #323, #38, #81 ) ;
#70 = CIRCLE ( 'NONE', #563, 0.02952755905511811330 ) ;
#71 = EDGE_LOOP ( 'NONE', ( #66, #452, #37, #131 ) ) ;
#72 = CYLINDRICAL_SURFACE ( 'NONE', #95, 0.02992125984251969156 ) ;
#73 = EDGE_CURVE ( 'NONE', #450, #489, #462, .T. ) ;
#74 = DIRECTION ( 'NONE',  ( 0.000000000000000000, -1.000000000000000000, 0.000000000000000000 ) ) ;
#75 = MANIFOLD_SOLID_BREP ( 'Imported1', #133 ) ;
#76 = ORIENTED_EDGE ( 'NONE', *, *, #444, .F. ) ;
#77 = CARTESIAN_POINT ( 'NONE',  ( 0.000000000000000000, 0.2364693717322835509, 0.02787422744094488966 ) ) ;
#78 = DIRECTION ( 'NONE',  ( 0.000000000000000000, -1.000000000000000000, 0.000000000000000000 ) ) ;
#79 = ADVANCED_FACE ( 'NONE', ( #477 ), #562, .T. ) ;
#80 = ORIENTED_EDGE ( 'NONE', *, *, #430, .T. ) ;
#81 = DIRECTION ( 'NONE',  ( 0.000000000000000000, 0.000000000000000000, -1.000000000000000000 ) ) ;
#82 = CIRCLE ( 'NONE', #216, 0.02992125984251969156 ) ;
#83 = EDGE_LOOP ( 'NONE', ( #393, #199, #300, #523 ) ) ;
#84 = EDGE_CURVE ( 'NONE', #316, #153, #82, .T. ) ;
#85 = CARTESIAN_POINT ( 'NONE',  ( 0.000000000000000000, 0.05617702578739911662, -0.02992125984251989626 ) ) ;
#86 = APPLICATION_CONTEXT ( 'automotive_design' ) ;
#87 = CARTESIAN_POINT ( 'NONE',  ( 0.000000000000000000, 0.01968503937007873988, -0.03937007874015747977 ) ) ;
#88 = PLANE ( 'NONE',  #405 ) ;
#89 = DIRECTION ( 'NONE',  ( 0.000000000000000000, 0.000000000000000000, 1.000000000000000000 ) ) ;
#90 = ORIENTED_EDGE ( 'NONE', *, *, #514, .T. ) ;
#91 = CARTESIAN_POINT ( 'NONE',  ( 0.000000000000000000, 0.2345671408267716307, -0.02977645834645669537 ) ) ;
#92 = AXIS2_PLACEMENT_3D ( 'NONE', #291, #410, #377 ) ;
#93 = EDGE_LOOP ( 'NONE', ( #90, #80 ) ) ;
#94 = CARTESIAN_POINT ( 'NONE',  ( 0.000000000000000000, 0.05617702578740156605, 0.000000000000000000 ) ) ;
#95 = AXIS2_PLACEMENT_3D ( 'NONE', #257, #347, #260 ) ;
#96 = FACE_OUTER_BOUND ( 'NONE', #60, .T. ) ;
#97 = VERTEX_POINT ( 'NONE', #65 ) ;
#98 = SURFACE_SIDE_STYLE ('',( #505 ) ) ;
#99 = EDGE_CURVE ( 'NONE', #100, #127, #152, .T. ) ;
#100 = VERTEX_POINT ( 'NONE', #474 ) ;
#101 = DIRECTION ( 'NONE',  ( 0.000000000000000000, 0.000000000000000000, -1.000000000000000000 ) ) ;
#102 = DIRECTION ( 'NONE',  ( 0.000000000000000000, 0.000000000000000000, -1.000000000000000000 ) ) ;
#103 = VECTOR ( 'NONE', #155, 39.37007874015748143 ) ;
#104 = EDGE_CURVE ( 'NONE', #206, #426, #550, .T. ) ;
#105 =( GEOMETRIC_REPRESENTATION_CONTEXT ( 3 ) GLOBAL_UNCERTAINTY_ASSIGNED_CONTEXT ( ( #165 ) ) GLOBAL_UNIT_ASSIGNED_CONTEXT ( ( #465, #51, #294 ) ) REPRESENTATION_CONTEXT ( 'NONE', 'WORKASPACE' ) );
#106 = CARTESIAN_POINT ( 'NONE',  ( 0.000000000000000000, 0.2318904196062991641, 0.02950789043307087273 ) ) ;
#107 = CARTESIAN_POINT ( 'NONE',  ( 4.821444091131311524E-18, 0.000000000000000000, 0.03937007874015747977 ) ) ;
#108 = CARTESIAN_POINT ( 'NONE',  ( 0.01771653543307086590, 0.2980314960629921739, 0.000000000000000000 ) ) ;
#109 = ORIENTED_EDGE ( 'NONE', *, *, #99, .T. ) ;
#110 = VECTOR ( 'NONE', #402, 39.37007874015748143 ) ;
#111 = CIRCLE ( 'NONE', #32, 0.01771653543307086937 ) ;
#112 = AXIS2_PLACEMENT_3D ( 'NONE', #524, #483, #394 ) ;
#113 = EDGE_CURVE ( 'NONE', #530, #153, #210, .T. ) ;
#114 = FACE_OUTER_BOUND ( 'NONE', #267, .T. ) ;
#115 = ORIENTED_EDGE ( 'NONE', *, *, #514, .F. ) ;
#116 = CARTESIAN_POINT ( 'NONE',  ( 0.000000000000000000, 0.2318904196062991641, -0.02950789043307087273 ) ) ;
#117 = EDGE_LOOP ( 'NONE', ( #271, #302, #407, #364 ) ) ;
#118 = CARTESIAN_POINT ( 'NONE',  ( 0.000000000000000000, 0.2322834645597854908, 0.000000000000000000 ) ) ;
#119 = ORIENTED_EDGE ( 'NONE', *, *, #59, .F. ) ;
#120 = DIRECTION ( 'NONE',  ( -9.637352644315592778E-16, -1.000000000000000000, 0.000000000000000000 ) ) ;
#121 = EDGE_CURVE ( 'NONE', #29, #222, #527, .T. ) ;
#122 = AXIS2_PLACEMENT_3D ( 'NONE', #406, #363, #486 ) ;
#123 = DIRECTION ( 'NONE',  ( -9.637352644315592778E-16, -1.000000000000000000, 0.000000000000000000 ) ) ;
#124 = ORIENTED_EDGE ( 'NONE', *, *, #584, .T. ) ;
#125 = LINE ( 'NONE', #164, #208 ) ;
#126 = DIRECTION ( 'NONE',  ( 0.000000000000000000, 1.000000000000000000, 0.000000000000000000 ) ) ;
#127 = VERTEX_POINT ( 'NONE', #339 ) ;
#128 = DIRECTION ( 'NONE',  ( 1.000000000000000000, 0.000000000000000000, 0.000000000000000000 ) ) ;
#129 = ADVANCED_FACE ( 'NONE', ( #519, #114 ), #297, .F. ) ;
#130 = CARTESIAN_POINT ( 'NONE',  ( 0.000000000000000000, 0.2362204724497857233, -0.02559055116881802164 ) ) ;
#131 = ORIENTED_EDGE ( 'NONE', *, *, #39, .F. ) ;
#132 = CARTESIAN_POINT ( 'NONE',  ( 0.000000000000000000, 0.01968503937007873988, 0.000000000000000000 ) ) ;
#133 = CLOSED_SHELL ( 'NONE', ( #292, #146, #545, #236, #182, #425, #79, #201, #328, #418, #330, #372, #308, #555, #204, #496, #392, #266, #129, #19, #140 ) ) ;
#134 = CIRCLE ( 'NONE', #541, 0.02952755905511811677 ) ;
#135 = ORIENTED_EDGE ( 'NONE', *, *, #473, .T. ) ;
#136 = DIRECTION ( 'NONE',  ( 0.000000000000000000, -1.000000000000000000, 0.000000000000000000 ) ) ;
#137 = EDGE_LOOP ( 'NONE', ( #43, #262, #283, #156 ) ) ;
#138 = CARTESIAN_POINT ( 'NONE',  ( 0.000000000000000000, 0.01968503937007873988, 0.000000000000000000 ) ) ;
#139 = DIRECTION ( 'NONE',  ( 0.000000000000000000, -1.000000000000000000, 0.000000000000000000 ) ) ;
#140 = ADVANCED_FACE ( 'NONE', ( #399 ), #488, .F. ) ;
#141 = STYLED_ITEM ( 'NONE', ( #13 ), #75 ) ;
#142 = DIRECTION ( 'NONE',  ( 0.000000000000000000, -1.000000000000000000, 0.000000000000000000 ) ) ;
#143 = DIRECTION ( 'NONE',  ( 0.000000000000000000, 0.000000000000000000, -1.000000000000000000 ) ) ;
#144 = CARTESIAN_POINT ( 'NONE',  ( 0.000000000000000000, 0.05224001791338582501, -0.02952755905511811677 ) ) ;
#145 = ORIENTED_EDGE ( 'NONE', *, *, #104, .T. ) ;
#146 = ADVANCED_FACE ( 'NONE', ( #319 ), #31, .T. ) ;
#147 = PLANE ( 'NONE',  #340 ) ;
#148 = LINE ( 'NONE', #501, #553 ) ;
#149 = AXIS2_PLACEMENT_3D ( 'NONE', #197, #53, #56 ) ;
#150 = AXIS2_PLACEMENT_3D ( 'NONE', #161, #120, #345 ) ;
#151 = DIRECTION ( 'NONE',  ( 0.000000000000000000, 0.000000000000000000, -1.000000000000000000 ) ) ;
#152 = LINE ( 'NONE', #295, #373 ) ;
#153 = VERTEX_POINT ( 'NONE', #438 ) ;
#154 = EDGE_CURVE ( 'NONE', #544, #530, #324, .T. ) ;
#155 = DIRECTION ( 'NONE',  ( -9.637352644315592778E-16, -1.000000000000000000, 0.000000000000000000 ) ) ;
#156 = ORIENTED_EDGE ( 'NONE', *, *, #228, .F. ) ;
#157 = CARTESIAN_POINT ( 'NONE',  ( 0.0007874015748031670510, 0.3149606299212598381, 0.000000000000000000 ) ) ;
#158 = AXIS2_PLACEMENT_3D ( 'NONE', #94, #495, #318 ) ;
#159 = AXIS2_PLACEMENT_3D ( 'NONE', #506, #198, #251 ) ;
#160 = ORIENTED_EDGE ( 'NONE', *, *, #162, .T. ) ;
#161 = CARTESIAN_POINT ( 'NONE',  ( 0.000000000000000000, 0.2980314960629921739, 0.000000000000000000 ) ) ;
#162 = EDGE_CURVE ( 'NONE', #428, #396, #224, .T. ) ;
#163 = ORIENTED_EDGE ( 'NONE', *, *, #162, .F. ) ;
#164 = CARTESIAN_POINT ( 'NONE',  ( 0.000000000000000000, 0.2322834645669291653, -0.02952755905511811677 ) ) ;
#165 = UNCERTAINTY_MEASURE_WITH_UNIT (LENGTH_MEASURE( 1.000000000000000082E-05 ), #465, 'distance_accuracy_value', 'NONE');
#166 = ORIENTED_EDGE ( 'NONE', *, *, #9, .F. ) ;
#167 = CARTESIAN_POINT ( 'NONE',  ( 0.000000000000000000, 0.2364693717322835509, -0.02787422744094488966 ) ) ;
#168 = AXIS2_PLACEMENT_3D ( 'NONE', #26, #123, #20 ) ;
#169 = AXIS2_PLACEMENT_3D ( 'NONE', #574, #352, #128 ) ;
#170 = PLANE ( 'NONE',  #287 ) ;
#171 = ORIENTED_EDGE ( 'NONE', *, *, #334, .F. ) ;
#172 = CYLINDRICAL_SURFACE ( 'NONE', #169, 0.01771653543307086937 ) ;
#173 = EDGE_CURVE ( 'NONE', #597, #396, #252, .T. ) ;
#174 = DIRECTION ( 'NONE',  ( 0.000000000000000000, 0.000000000000000000, -1.000000000000000000 ) ) ;
#175 = DIRECTION ( 'NONE',  ( 1.000000000000000000, 0.000000000000000000, 0.000000000000000000 ) ) ;
#176 = CARTESIAN_POINT ( 'NONE',  ( -3.028101798946819165E-12, 0.2322834645597855185, 0.02952755906616913797 ) ) ;
#177 = DIRECTION ( 'NONE',  ( 0.000000000000000000, 1.000000000000000000, 0.000000000000000000 ) ) ;
#178 = ORIENTED_EDGE ( 'NONE', *, *, #84, .T. ) ;
#179 = DIRECTION ( 'NONE',  ( 0.000000000000000000, 0.000000000000000000, -1.000000000000000000 ) ) ;
#180 = VECTOR ( 'NONE', #195, 39.37007874015748143 ) ;
#181 = DIRECTION ( 'NONE',  ( 0.000000000000000000, -1.000000000000000000, 0.000000000000000000 ) ) ;
#182 = ADVANCED_FACE ( 'NONE', ( #454 ), #351, .T. ) ;
#183 = ORIENTED_EDGE ( 'NONE', *, *, #173, .T. ) ;
#184 = DIRECTION ( 'NONE',  ( 0.000000000000000000, -1.000000000000000000, 0.000000000000000000 ) ) ;
#185 =( BOUNDED_SURFACE ( )  B_SPLINE_SURFACE ( 3, 3, ( 
 ( #106, #193, #329, #381 ),
 ( #497, #511, #6, #91 ),
 ( #413, #191, #278, #409 ),
 ( #458, #46, #599, #557 ) ),
 .UNSPECIFIED., .F., .F., .F. ) 
 B_SPLINE_SURFACE_WITH_KNOTS ( ( 4, 4 ),
 ( 4, 4 ),
 ( 0.000000000000000000, 1.000000000000000000 ),
 ( 0.000000000000000000, 1.000000000000000000 ),
 .UNSPECIFIED. ) 
 GEOMETRIC_REPRESENTATION_ITEM ( )  RATIONAL_B_SPLINE_SURFACE ( (
 ( 1.000000000000000000, 0.3333333333333330373, 0.3333333333333330373, 1.000000000000000000),
 ( 0.7553208711179730805, 0.2517736237059909898, 0.2517736237059909898, 0.7553208711179730805),
 ( 0.7553208711179730805, 0.2517736237059909898, 0.2517736237059909898, 0.7553208711179730805),
 ( 1.000000000000000000, 0.3333333333333330373, 0.3333333333333330373, 1.000000000000000000) ) ) 
 REPRESENTATION_ITEM ( '' )  SURFACE ( )  );
#186 = DIRECTION ( 'NONE',  ( 1.000000000000000000, -9.637352644315592778E-16, 0.000000000000000000 ) ) ;
#187 = ORIENTED_EDGE ( 'NONE', *, *, #220, .T. ) ;
#188 = EDGE_CURVE ( 'NONE', #439, #530, #213, .T. ) ;
#189 = DIRECTION ( 'NONE',  ( 0.000000000000000000, 0.000000000000000000, -1.000000000000000000 ) ) ;
#190 = CARTESIAN_POINT ( 'NONE',  ( 0.000000000000000000, 0.2322834645615713955, -0.02952755906616913797 ) ) ;
#191 = CARTESIAN_POINT ( 'NONE',  ( -0.05574845484251965411, 0.2364693717322835509, 0.02787422744094489660 ) ) ;
#192 = PRESENTATION_LAYER_ASSIGNMENT (  '', '', ( #141 ) ) ;
#193 = CARTESIAN_POINT ( 'NONE',  ( -0.05901578082677166187, 0.2318904196062991918, 0.02950789043307087620 ) ) ;
#194 = CARTESIAN_POINT ( 'NONE',  ( -0.05118110236232489840, 0.2362204724556795921, -0.02559055116665623353 ) ) ;
#195 = DIRECTION ( 'NONE',  ( 0.000000000000000000, -1.000000000000000000, 0.000000000000000000 ) ) ;
#196 = LENGTH_MEASURE_WITH_UNIT ( LENGTH_MEASURE( 0.02539999999999999897 ), #421 );
#197 = CARTESIAN_POINT ( 'NONE',  ( 0.000000000000000000, 0.06090143523622046362, 0.000000000000000000 ) ) ;
#198 = DIRECTION ( 'NONE',  ( 0.000000000000000000, 0.000000000000000000, 1.000000000000000000 ) ) ;
#199 = ORIENTED_EDGE ( 'NONE', *, *, #480, .F. ) ;
#200 = DIRECTION ( 'NONE',  ( 0.000000000000000000, -1.000000000000000000, 0.000000000000000000 ) ) ;
#201 = ADVANCED_FACE ( 'NONE', ( #229 ), #509, .T. ) ;
#202 = EDGE_LOOP ( 'NONE', ( #187, #27, #145, #436 ) ) ;
#203 = CARTESIAN_POINT ( 'NONE',  ( 0.000000000000000000, 0.2345671408267716307, -0.02977645834645669537 ) ) ;
#204 = ADVANCED_FACE ( 'NONE', ( #395 ), #170, .F. ) ;
#205 = CARTESIAN_POINT ( 'NONE',  ( -0.03028031496062993586, 0.05224001791338582501, -0.03028031496062993586 ) ) ;
#206 = VERTEX_POINT ( 'NONE', #130 ) ;
#207 = DIRECTION ( 'NONE',  ( 0.000000000000000000, -1.000000000000000000, 0.000000000000000000 ) ) ;
#208 = VECTOR ( 'NONE', #390, 39.37007874015748143 ) ;
#209 = ORIENTED_EDGE ( 'NONE', *, *, #220, .F. ) ;
#210 = LINE ( 'NONE', #424, #499 ) ;
#211 = ORIENTED_EDGE ( 'NONE', *, *, #104, .F. ) ;
#212 = CARTESIAN_POINT ( 'NONE',  ( 0.000000000000000000, 0.2345671408267716307, 0.02977645834645669537 ) ) ;
#213 = LINE ( 'NONE', #354, #468 ) ;
#214 = EDGE_LOOP ( 'NONE', ( #548, #589, #285, #309 ) ) ;
#215 = CARTESIAN_POINT ( 'NONE',  ( 0.000000000000000000, 0.2362008038188976589, -0.02519750622047244384 ) ) ;
#216 = AXIS2_PLACEMENT_3D ( 'NONE', #348, #62, #253 ) ;
#217 = CIRCLE ( 'NONE', #556, 0.02952755905511811677 ) ;
#218 = ORIENTED_EDGE ( 'NONE', *, *, #566, .T. ) ;
#219 = CARTESIAN_POINT ( 'NONE',  ( 0.000000000000000000, 0.01968503937007873988, -0.03937007874015747977 ) ) ;
#220 = EDGE_CURVE ( 'NONE', #455, #259, #23, .T. ) ;
#221 = DIRECTION ( 'NONE',  ( 1.017013810865388567E-17, -0.9965457582448795648, 0.08304547985374012564 ) ) ;
#222 = VERTEX_POINT ( 'NONE', #420 ) ;
#223 = CARTESIAN_POINT ( 'NONE',  ( 0.000000000000000000, 0.06090143523622046362, -0.02952755905511811330 ) ) ;
#224 = LINE ( 'NONE', #87, #110 ) ;
#225 = EDGE_LOOP ( 'NONE', ( #63, #349 ) ) ;
#226 = DIRECTION ( 'NONE',  ( -9.637352644315592778E-16, -1.000000000000000000, 0.000000000000000000 ) ) ;
#227 = COLOUR_RGB ( '',0.7921568627450980005, 0.8196078431372548767, 0.9333333333333333481 ) ;
#228 = EDGE_CURVE ( 'NONE', #153, #316, #398, .T. ) ;
#229 = FACE_OUTER_BOUND ( 'NONE', #492, .T. ) ;
#230 = DIMENSIONAL_EXPONENTS ( 1.000000000000000000, 0.000000000000000000, 0.000000000000000000, 0.000000000000000000, 0.000000000000000000, 0.000000000000000000, 0.000000000000000000 ) ;
#231 = DIRECTION ( 'NONE',  ( -9.637352644315592778E-16, -1.000000000000000000, 0.000000000000000000 ) ) ;
#232 = CARTESIAN_POINT ( 'NONE',  ( 0.000000000000000000, 0.01968503937007873988, 0.000000000000000000 ) ) ;
#233 = AXIS2_PLACEMENT_3D ( 'NONE', #598, #235, #189 ) ;
#234 = DIRECTION ( 'NONE',  ( 0.000000000000000000, 0.000000000000000000, -1.000000000000000000 ) ) ;
#235 = DIRECTION ( 'NONE',  ( 0.000000000000000000, -1.000000000000000000, 0.000000000000000000 ) ) ;
#236 = ADVANCED_FACE ( 'NONE', ( #290 ), #517, .T. ) ;
#237 = DIRECTION ( 'NONE',  ( 0.000000000000000000, -1.000000000000000000, 0.000000000000000000 ) ) ;
#238 = FILL_AREA_STYLE ('',( #558 ) ) ;
#239 = EDGE_CURVE ( 'NONE', #455, #439, #461, .T. ) ;
#240 = EDGE_LOOP ( 'NONE', ( #540, #124, #33, #388 ) ) ;
#241 = VECTOR ( 'NONE', #369, 39.37007874015748854 ) ;
#242 = CARTESIAN_POINT ( 'NONE',  ( 0.000000000000000000, 0.2362204724344641182, 0.02789679701194860625 ) ) ;
#243 = FACE_OUTER_BOUND ( 'NONE', #83, .T. ) ;
#244 =( BOUNDED_CURVE ( )  B_SPLINE_CURVE ( 3, ( #375, #242, #502, #379 ),
 .UNSPECIFIED., .F., .F. ) 
 B_SPLINE_CURVE_WITH_KNOTS ( ( 4, 4 ),
 ( 0.06314145700000052541, 0.9368585429999872760 ),
 .UNSPECIFIED. ) 
 CURVE ( )  GEOMETRIC_REPRESENTATION_ITEM ( )  RATIONAL_B_SPLINE_CURVE ( ( 0.9565783021659930441, 0.7697947703959779897, 0.7697947703959752142, 0.9565783021659852725 ) ) 
 REPRESENTATION_ITEM ( '' )  );
#245 = APPLICATION_PROTOCOL_DEFINITION ( 'draft international standard', 'automotive_design', 1998, #86 ) ;
#246 = EDGE_CURVE ( 'NONE', #280, #516, #148, .T. ) ;
#247 = CARTESIAN_POINT ( 'NONE',  ( 0.000000000000000000, 0.05224001791338582501, 0.000000000000000000 ) ) ;
#248 = DIRECTION ( 'NONE',  ( 0.000000000000000000, -1.000000000000000000, 0.000000000000000000 ) ) ;
#249 =( BOUNDED_CURVE ( )  B_SPLINE_CURVE ( 3, ( #417, #11, #194, #28 ),
 .UNSPECIFIED., .F., .T. ) 
 B_SPLINE_CURVE_WITH_KNOTS ( ( 4, 4 ),
 ( 0.000000000000000000, 1.000000000000000000 ),
 .UNSPECIFIED. ) 
 CURVE ( )  GEOMETRIC_REPRESENTATION_ITEM ( )  RATIONAL_B_SPLINE_CURVE ( ( 0.9565783029009293781, 0.3188594343003095521, 0.3188594343003095521, 0.9565783029009293781 ) ) 
 REPRESENTATION_ITEM ( '' )  );
#250 = CARTESIAN_POINT ( 'NONE',  ( 0.01771653543307086937, 0.2980314960629921739, 0.000000000000000000 ) ) ;
#251 = DIRECTION ( 'NONE',  ( 1.000000000000000000, 0.000000000000000000, 0.000000000000000000 ) ) ;
#252 = CIRCLE ( 'NONE', #580, 0.03937007874015747977 ) ;
#253 = DIRECTION ( 'NONE',  ( 0.000000000000000000, 0.000000000000000000, -1.000000000000000000 ) ) ;
#254 = ORIENTED_EDGE ( 'NONE', *, *, #246, .T. ) ;
#255 = CYLINDRICAL_SURFACE ( 'NONE', #150, 0.01771653543307086937 ) ;
#256 = EDGE_LOOP ( 'NONE', ( #47, #171, #484, #472 ) ) ;
#257 = CARTESIAN_POINT ( 'NONE',  ( 0.000000000000000000, 0.05617702578740156605, 0.000000000000000000 ) ) ;
#258 = EDGE_CURVE ( 'NONE', #450, #100, #261, .T. ) ;
#259 = VERTEX_POINT ( 'NONE', #321 ) ;
#260 = DIRECTION ( 'NONE',  ( 0.000000000000000000, 0.000000000000000000, -1.000000000000000000 ) ) ;
#261 = CIRCLE ( 'NONE', #592, 0.02952755905511811677 ) ;
#262 = ORIENTED_EDGE ( 'NONE', *, *, #415, .T. ) ;
#263 = CARTESIAN_POINT ( 'NONE',  ( 0.000000000000000000, 0.2318904196062991641, 0.02950789043307087273 ) ) ;
#264 = ORIENTED_EDGE ( 'NONE', *, *, #317, .F. ) ;
#265 = DIRECTION ( 'NONE',  ( 1.000000000000000000, 0.000000000000000000, 0.000000000000000000 ) ) ;
#266 = ADVANCED_FACE ( 'NONE', ( #504 ), #185, .T. ) ;
#267 = EDGE_LOOP ( 'NONE', ( #178, #443 ) ) ;
#268 = CARTESIAN_POINT ( 'NONE',  ( 0.000000000000000000, 0.05224001791338582501, -0.02952755905511811677 ) ) ;
#269 = DIRECTION ( 'NONE',  ( 0.000000000000000000, 1.000000000000000000, 0.000000000000000000 ) ) ;
#270 = AXIS2_PLACEMENT_3D ( 'NONE', #367, #142, #365 ) ;
#271 = ORIENTED_EDGE ( 'NONE', *, *, #154, .T. ) ;
#272 = CARTESIAN_POINT ( 'NONE',  ( -0.02589763779527559651, 0.2362204724409449064, 0.02589763779527559651 ) ) ;
#273 = CARTESIAN_POINT ( 'NONE',  ( 0.000000000000000000, 0.05617702578739911662, 0.000000000000000000 ) ) ;
#274 = DIRECTION ( 'NONE',  ( 1.000000000000000000, 0.000000000000000000, 0.000000000000000000 ) ) ;
#275 = PRODUCT_RELATED_PRODUCT_CATEGORY ( 'part', '', ( #326 ) ) ;
#276 = EDGE_LOOP ( 'NONE', ( #582, #254, #573, #538 ) ) ;
#277 = AXIS2_PLACEMENT_3D ( 'NONE', #42, #36, #174 ) ;
#278 = CARTESIAN_POINT ( 'NONE',  ( -0.05574845484251965411, 0.2364693717322835509, -0.02787422744094489660 ) ) ;
#279 = CIRCLE ( 'NONE', #518, 0.01692913385826771283 ) ;
#280 = VERTEX_POINT ( 'NONE', #368 ) ;
#281 = CARTESIAN_POINT ( 'NONE',  ( 0.000000000000000000, 0.000000000000000000, 0.000000000000000000 ) ) ;
#282 = LINE ( 'NONE', #470, #241 ) ;
#283 = ORIENTED_EDGE ( 'NONE', *, *, #338, .T. ) ;
#284 = CARTESIAN_POINT ( 'NONE',  ( 0.000000000000000000, 0.06090143523622046362, 0.000000000000000000 ) ) ;
#285 = ORIENTED_EDGE ( 'NONE', *, *, #15, .F. ) ;
#286 = FACE_OUTER_BOUND ( 'NONE', #296, .T. ) ;
#287 = AXIS2_PLACEMENT_3D ( 'NONE', #533, #78, #537 ) ;
#288 = CIRCLE ( 'NONE', #500, 0.01771653543307086937 ) ;
#289 = DIRECTION ( 'NONE',  ( 0.000000000000000000, -1.000000000000000000, 0.000000000000000000 ) ) ;
#290 = FACE_OUTER_BOUND ( 'NONE', #463, .T. ) ;
#291 = CARTESIAN_POINT ( 'NONE',  ( 0.0007874015748031497038, 0.2980314960629921739, 0.000000000000000000 ) ) ;
#292 = ADVANCED_FACE ( 'NONE', ( #551 ), #376, .T. ) ;
#293 = DIRECTION ( 'NONE',  ( 0.000000000000000000, 0.000000000000000000, -1.000000000000000000 ) ) ;
#294 =( NAMED_UNIT ( * ) SI_UNIT ( $, .STERADIAN. ) SOLID_ANGLE_UNIT ( ) );
#295 = CARTESIAN_POINT ( 'NONE',  ( 3.616083068348484413E-18, 0.05224001791338582501, 0.02952755905511811677 ) ) ;
#296 = EDGE_LOOP ( 'NONE', ( #40, #346, #312, #503 ) ) ;
#297 = PLANE ( 'NONE',  #446 ) ;
#298 = ORIENTED_EDGE ( 'NONE', *, *, #154, .F. ) ;
#299 = CARTESIAN_POINT ( 'NONE',  ( 0.05574845484251965411, 0.2364693717322835509, 0.02787422744094489660 ) ) ;
#300 = ORIENTED_EDGE ( 'NONE', *, *, #121, .T. ) ;
#301 = CARTESIAN_POINT ( 'NONE',  ( 0.05955291673228347432, 0.2345671408267716584, 0.02977645834645669537 ) ) ;
#302 = ORIENTED_EDGE ( 'NONE', *, *, #113, .T. ) ;
#303 = DIRECTION ( 'NONE',  ( 0.000000000000000000, 0.000000000000000000, 1.000000000000000000 ) ) ;
#304 =( BOUNDED_SURFACE ( )  B_SPLINE_SURFACE ( 3, 3, ( 
 ( #116, #427, #18, #263 ),
 ( #203, #437, #301, #212 ),
 ( #167, #479, #299, #77 ),
 ( #215, #307, #434, #526 ) ),
 .UNSPECIFIED., .F., .F., .F. ) 
 B_SPLINE_SURFACE_WITH_KNOTS ( ( 4, 4 ),
 ( 4, 4 ),
 ( 0.000000000000000000, 1.000000000000000000 ),
 ( 0.000000000000000000, 1.000000000000000000 ),
 .UNSPECIFIED. ) 
 GEOMETRIC_REPRESENTATION_ITEM ( )  RATIONAL_B_SPLINE_SURFACE ( (
 ( 1.000000000000000000, 0.3333333333333330373, 0.3333333333333330373, 1.000000000000000000),
 ( 0.7553208711179730805, 0.2517736237059909898, 0.2517736237059909898, 0.7553208711179730805),
 ( 0.7553208711179730805, 0.2517736237059909898, 0.2517736237059909898, 0.7553208711179730805),
 ( 1.000000000000000000, 0.3333333333333330373, 0.3333333333333330373, 1.000000000000000000) ) ) 
 REPRESENTATION_ITEM ( '' )  SURFACE ( )  );
#305 = CARTESIAN_POINT ( 'NONE',  ( 0.000000000000000000, 0.2362204724497856956, -0.02559055116881802164 ) ) ;
#306 = ORIENTED_EDGE ( 'NONE', *, *, #411, .T. ) ;
#307 = CARTESIAN_POINT ( 'NONE',  ( 0.05039501248031496433, 0.2362008038188976589, -0.02519750622047244384 ) ) ;
#308 = ADVANCED_FACE ( 'NONE', ( #286 ), #55, .T. ) ;
#309 = ORIENTED_EDGE ( 'NONE', *, *, #317, .T. ) ;
#310 = FACE_OUTER_BOUND ( 'NONE', #137, .T. ) ;
#311 = CARTESIAN_POINT ( 'NONE',  ( 0.000000000000000000, 0.2322834645597854908, 0.000000000000000000 ) ) ;
#312 = ORIENTED_EDGE ( 'NONE', *, *, #73, .T. ) ;
#313 = DIRECTION ( 'NONE',  ( 1.000000000000000000, 0.000000000000000000, 0.000000000000000000 ) ) ;
#314 = AXIS2_PLACEMENT_3D ( 'NONE', #273, #74, #585 ) ;
#315 = CIRCLE ( 'NONE', #54, 0.02992125984251968809 ) ;
#316 = VERTEX_POINT ( 'NONE', #467 ) ;
#317 = EDGE_CURVE ( 'NONE', #426, #206, #249, .T. ) ;
#318 = DIRECTION ( 'NONE',  ( 0.000000000000000000, 0.000000000000000000, -1.000000000000000000 ) ) ;
#319 = FACE_OUTER_BOUND ( 'NONE', #24, .T. ) ;
#320 = EDGE_LOOP ( 'NONE', ( #264, #211 ) ) ;
#321 = CARTESIAN_POINT ( 'NONE',  ( 0.000000000000000000, 0.2322834645615713955, -0.02952755906616913797 ) ) ;
#322 = ORIENTED_EDGE ( 'NONE', *, *, #258, .T. ) ;
#323 = CARTESIAN_POINT ( 'NONE',  ( 0.000000000000000000, 0.2980314960629921739, 0.000000000000000000 ) ) ;
#324 = CIRCLE ( 'NONE', #314, 0.02992125984251968809 ) ;
#325 = CARTESIAN_POINT ( 'NONE',  ( 0.000000000000000000, 0.01968503937007873988, 0.000000000000000000 ) ) ;
#326 = PRODUCT ( 'Same_Sky_CPG-02-SMT-B', 'Same_Sky_CPG-02-SMT-B', '', ( #565 ) ) ;
#327 = DIRECTION ( 'NONE',  ( 0.000000000000000000, 0.000000000000000000, -1.000000000000000000 ) ) ;
#328 = ADVANCED_FACE ( 'NONE', ( #243 ), #255, .T. ) ;
#329 = CARTESIAN_POINT ( 'NONE',  ( -0.05901578082677166187, 0.2318904196062991918, -0.02950789043307087620 ) ) ;
#330 = ADVANCED_FACE ( 'NONE', ( #531 ), #529, .T. ) ;
#331 = AXIS2_PLACEMENT_3D ( 'NONE', #325, #507, #101 ) ;
#332 = CIRCLE ( 'NONE', #69, 0.01771653543307086937 ) ;
#333 =( NAMED_UNIT ( * ) PLANE_ANGLE_UNIT ( ) SI_UNIT ( $, .RADIAN. ) );
#334 = EDGE_CURVE ( 'NONE', #259, #455, #374, .T. ) ;
#335 = SHAPE_DEFINITION_REPRESENTATION ( #595, #358 ) ;
#336 =( NAMED_UNIT ( * ) SI_UNIT ( $, .STERADIAN. ) SOLID_ANGLE_UNIT ( ) );
#337 = EDGE_LOOP ( 'NONE', ( #498, #306 ) ) ;
#338 = EDGE_CURVE ( 'NONE', #544, #316, #571, .T. ) ;
#339 = CARTESIAN_POINT ( 'NONE',  ( 3.616083068348484413E-18, 0.01968503937007873988, 0.02952755905511811677 ) ) ;
#340 = AXIS2_PLACEMENT_3D ( 'NONE', #512, #564, #293 ) ;
#341 = VERTEX_POINT ( 'NONE', #157 ) ;
#342 = DIRECTION ( 'NONE',  ( 1.224646799147353207E-16, -1.180235306811537025E-31, 1.000000000000000000 ) ) ;
#343 = AXIS2_PLACEMENT_3D ( 'NONE', #490, #226, #274 ) ;
#344 = VERTEX_POINT ( 'NONE', #67 ) ;
#345 = DIRECTION ( 'NONE',  ( 1.000000000000000000, 0.000000000000000000, 0.000000000000000000 ) ) ;
#346 = ORIENTED_EDGE ( 'NONE', *, *, #536, .T. ) ;
#347 = DIRECTION ( 'NONE',  ( 0.000000000000000000, -1.000000000000000000, 0.000000000000000000 ) ) ;
#348 = CARTESIAN_POINT ( 'NONE',  ( 0.000000000000000000, 0.05224001791338582501, 0.000000000000000000 ) ) ;
#349 = ORIENTED_EDGE ( 'NONE', *, *, #536, .F. ) ;
#350 = CARTESIAN_POINT ( 'NONE',  ( -5.956946319517907296E-17, 0.2362204724409449064, 0.000000000000000000 ) ) ;
#351 = CYLINDRICAL_SURFACE ( 'NONE', #277, 0.02952755905511811677 ) ;
#352 = DIRECTION ( 'NONE',  ( -9.637352644315592778E-16, -1.000000000000000000, 0.000000000000000000 ) ) ;
#353 = EDGE_CURVE ( 'NONE', #97, #280, #279, .T. ) ;
#354 = CARTESIAN_POINT ( 'NONE',  ( 3.616083068348484413E-18, 0.06090143523622046362, 0.02952755905511811677 ) ) ;
#355 = ORIENTED_EDGE ( 'NONE', *, *, #39, .T. ) ;
#356 = DIRECTION ( 'NONE',  ( 0.000000000000000000, 0.000000000000000000, -1.000000000000000000 ) ) ;
#357 = EDGE_CURVE ( 'NONE', #259, #525, #125, .T. ) ;
#358 = ADVANCED_BREP_SHAPE_REPRESENTATION ( 'Same_Sky_CPG-02-SMT-B', ( #75, #159 ), #105 ) ;
#359 = ORIENTED_EDGE ( 'NONE', *, *, #50, .F. ) ;
#360 = LINE ( 'NONE', #412, #581 ) ;
#361 = AXIS2_PLACEMENT_3D ( 'NONE', #464, #469, #49 ) ;
#362 = CIRCLE ( 'NONE', #432, 0.0007874015748031507880 ) ;
#363 = DIRECTION ( 'NONE',  ( 0.000000000000000000, -1.000000000000000000, 0.000000000000000000 ) ) ;
#364 = ORIENTED_EDGE ( 'NONE', *, *, #338, .F. ) ;
#365 = DIRECTION ( 'NONE',  ( 0.000000000000000000, 0.000000000000000000, -1.000000000000000000 ) ) ;
#366 = DIRECTION ( 'NONE',  ( 0.000000000000000000, 0.000000000000000000, 1.000000000000000000 ) ) ;
#367 = CARTESIAN_POINT ( 'NONE',  ( 0.000000000000000000, 0.05224001791338582501, 0.000000000000000000 ) ) ;
#368 = CARTESIAN_POINT ( 'NONE',  ( -0.01771653543307086590, 0.2980314960629921739, 2.169649841009090725E-18 ) ) ;
#369 = DIRECTION ( 'NONE',  ( 0.000000000000000000, -0.9965457582448795648, -0.08304547985374012564 ) ) ;
#370 = FACE_BOUND ( 'NONE', #337, .T. ) ;
#371 = PRODUCT_DEFINITION_CONTEXT ( 'detailed design', #86, 'design' ) ;
#372 = ADVANCED_FACE ( 'NONE', ( #310 ), #72, .T. ) ;
#373 = VECTOR ( 'NONE', #200, 39.37007874015748143 ) ;
#374 = CIRCLE ( 'NONE', #491, 0.02952755906985281287 ) ;
#375 = CARTESIAN_POINT ( 'NONE',  ( 0.000000000000000000, 0.2362204724497857233, 0.02559055116881802164 ) ) ;
#376 = CYLINDRICAL_SURFACE ( 'NONE', #331, 0.03937007874015747977 ) ;
#377 = DIRECTION ( 'NONE',  ( -1.000000000000000000, 0.000000000000000000, 0.000000000000000000 ) ) ;
#378 = PRODUCT_DEFINITION ( 'UNKNOWN', '', #35, #371 ) ;
#379 = CARTESIAN_POINT ( 'NONE',  ( -3.028101798946819165E-12, 0.2322834645597855185, 0.02952755906616913797 ) ) ;
#380 = CARTESIAN_POINT ( 'NONE',  ( 0.000000000000000000, 0.2362204724497857233, -0.02559055116881802164 ) ) ;
#381 = CARTESIAN_POINT ( 'NONE',  ( 0.000000000000000000, 0.2318904196062991641, -0.02950789043307087273 ) ) ;
#382 = VECTOR ( 'NONE', #289, 39.37007874015748143 ) ;
#383 = CARTESIAN_POINT ( 'NONE',  ( 0.05118110236232489840, 0.2362204724556795921, 0.02559055116665623353 ) ) ;
#384 = ORIENTED_EDGE ( 'NONE', *, *, #353, .F. ) ;
#385 = DIRECTION ( 'NONE',  ( 0.000000000000000000, -1.000000000000000000, 0.000000000000000000 ) ) ;
#386 = MECHANICAL_DESIGN_GEOMETRIC_PRESENTATION_REPRESENTATION (  '', ( #141 ), #572 ) ;
#387 = AXIS2_PLACEMENT_3D ( 'NONE', #30, #207, #389 ) ;
#388 = ORIENTED_EDGE ( 'NONE', *, *, #415, .F. ) ;
#389 = DIRECTION ( 'NONE',  ( 0.000000000000000000, 0.000000000000000000, -1.000000000000000000 ) ) ;
#390 = DIRECTION ( 'NONE',  ( 0.000000000000000000, -1.000000000000000000, 0.000000000000000000 ) ) ;
#391 = CARTESIAN_POINT ( 'NONE',  ( 0.05118110236232489840, 0.2362204724556795921, -0.02559055116665623353 ) ) ;
#392 = ADVANCED_FACE ( 'NONE', ( #397 ), #304, .T. ) ;
#393 = ORIENTED_EDGE ( 'NONE', *, *, #246, .F. ) ;
#394 = DIRECTION ( 'NONE',  ( 0.000000000000000000, 0.000000000000000000, -1.000000000000000000 ) ) ;
#395 = FACE_OUTER_BOUND ( 'NONE', #433, .T. ) ;
#396 = VERTEX_POINT ( 'NONE', #25 ) ;
#397 = FACE_OUTER_BOUND ( 'NONE', #202, .T. ) ;
#398 = CIRCLE ( 'NONE', #361, 0.02992125984251969156 ) ;
#399 = FACE_OUTER_BOUND ( 'NONE', #423, .T. ) ;
#400 = ORIENTED_EDGE ( 'NONE', *, *, #357, .F. ) ;
#401 = CARTESIAN_POINT ( 'NONE',  ( 3.616083068348484413E-18, 0.06090143523622046362, 0.02952755905511811330 ) ) ;
#402 = DIRECTION ( 'NONE',  ( 0.000000000000000000, -1.000000000000000000, 0.000000000000000000 ) ) ;
#403 = ORIENTED_EDGE ( 'NONE', *, *, #239, .T. ) ;
#404 = CARTESIAN_POINT ( 'NONE',  ( -0.01771653543307093182, 0.2362204724409449064, 2.169649841009094962E-18 ) ) ;
#405 = AXIS2_PLACEMENT_3D ( 'NONE', #272, #587, #593 ) ;
#406 = CARTESIAN_POINT ( 'NONE',  ( 0.000000000000000000, 0.05224001791338582501, 0.000000000000000000 ) ) ;
#407 = ORIENTED_EDGE ( 'NONE', *, *, #84, .F. ) ;
#408 = DIRECTION ( 'NONE',  ( 0.000000000000000000, 0.000000000000000000, -1.000000000000000000 ) ) ;
#409 = CARTESIAN_POINT ( 'NONE',  ( 0.000000000000000000, 0.2364693717322835509, -0.02787422744094488966 ) ) ;
#410 = DIRECTION ( 'NONE',  ( 0.000000000000000000, -0.000000000000000000, -1.000000000000000000 ) ) ;
#411 = EDGE_CURVE ( 'NONE', #516, #222, #422, .T. ) ;
#412 = CARTESIAN_POINT ( 'NONE',  ( 4.821444091131311524E-18, 0.01968503937007873988, 0.03937007874015747977 ) ) ;
#413 = CARTESIAN_POINT ( 'NONE',  ( 0.000000000000000000, 0.2364693717322835509, 0.02787422744094488966 ) ) ;
#414 = ORIENTED_EDGE ( 'NONE', *, *, #473, .F. ) ;
#415 = EDGE_CURVE ( 'NONE', #530, #544, #315, .T. ) ;
#416 = CARTESIAN_POINT ( 'NONE',  ( 0.000000000000000000, 0.2362204724344640350, -0.02789679701194863401 ) ) ;
#417 = CARTESIAN_POINT ( 'NONE',  ( 0.000000000000000000, 0.2362204724497856956, 0.02559055116881802164 ) ) ;
#418 = ADVANCED_FACE ( 'NONE', ( #429 ), #22, .T. ) ;
#419 = CARTESIAN_POINT ( 'NONE',  ( 0.000000000000000000, 0.05224001791338582501, 0.000000000000000000 ) ) ;
#420 = CARTESIAN_POINT ( 'NONE',  ( 0.01771653543307081038, 0.2362204724409449064, 0.000000000000000000 ) ) ;
#421 =( LENGTH_UNIT ( ) NAMED_UNIT ( * ) SI_UNIT ( $, .METRE. ) );
#422 = CIRCLE ( 'NONE', #58, 0.01771653543307086937 ) ;
#423 = EDGE_LOOP ( 'NONE', ( #135, #183 ) ) ;
#424 = CARTESIAN_POINT ( 'NONE',  ( 3.664297509259797498E-18, 0.05617702578740156605, 0.02992125984251969156 ) ) ;
#425 = ADVANCED_FACE ( 'NONE', ( #583 ), #172, .T. ) ;
#426 = VERTEX_POINT ( 'NONE', #487 ) ;
#427 = CARTESIAN_POINT ( 'NONE',  ( 0.05901578082677166187, 0.2318904196062991918, -0.02950789043307087620 ) ) ;
#428 = VERTEX_POINT ( 'NONE', #219 ) ;
#429 = FACE_OUTER_BOUND ( 'NONE', #256, .T. ) ;
#430 = EDGE_CURVE ( 'NONE', #127, #489, #134, .T. ) ;
#431 = CIRCLE ( 'NONE', #57, 0.03937007874015747977 ) ;
#432 = AXIS2_PLACEMENT_3D ( 'NONE', #2, #549, #313 ) ;
#433 = EDGE_LOOP ( 'NONE', ( #482, #520 ) ) ;
#434 = CARTESIAN_POINT ( 'NONE',  ( 0.05039501248031496433, 0.2362008038188976589, 0.02519750622047244384 ) ) ;
#435 = EDGE_CURVE ( 'NONE', #280, #29, #288, .T. ) ;
#436 = ORIENTED_EDGE ( 'NONE', *, *, #15, .T. ) ;
#437 = CARTESIAN_POINT ( 'NONE',  ( 0.05955291673228347432, 0.2345671408267716584, -0.02977645834645669537 ) ) ;
#438 = CARTESIAN_POINT ( 'NONE',  ( 3.664297509259797498E-18, 0.05224001791338582501, 0.02992125984251969156 ) ) ;
#439 = VERTEX_POINT ( 'NONE', #401 ) ;
#440 = DIRECTION ( 'NONE',  ( 0.000000000000000000, 0.000000000000000000, -1.000000000000000000 ) ) ;
#441 =( BOUNDED_CURVE ( )  B_SPLINE_CURVE ( 3, ( #190, #552, #416, #380 ),
 .UNSPECIFIED., .F., .T. ) 
 B_SPLINE_CURVE_WITH_KNOTS ( ( 4, 4 ),
 ( 0.06314145700000076133, 0.9368585430000000436 ),
 .UNSPECIFIED. ) 
 CURVE ( )  GEOMETRIC_REPRESENTATION_ITEM ( )  RATIONAL_B_SPLINE_CURVE ( ( 0.9565783021659928220, 0.7697947703959753252, 0.7697947703959754362, 0.9565783021659932661 ) ) 
 REPRESENTATION_ITEM ( '' )  );
#442 = AXIS2_PLACEMENT_3D ( 'NONE', #311, #269, #448 ) ;
#443 = ORIENTED_EDGE ( 'NONE', *, *, #228, .T. ) ;
#444 = EDGE_CURVE ( 'NONE', #344, #597, #360, .T. ) ;
#445 = FACE_OUTER_BOUND ( 'NONE', #320, .T. ) ;
#446 = AXIS2_PLACEMENT_3D ( 'NONE', #205, #177, #89 ) ;
#447 = VECTOR ( 'NONE', #385, 39.37007874015748143 ) ;
#448 = DIRECTION ( 'NONE',  ( 0.000000000000000000, 0.000000000000000000, -1.000000000000000000 ) ) ;
#449 = DIMENSIONAL_EXPONENTS ( 1.000000000000000000, 0.000000000000000000, 0.000000000000000000, 0.000000000000000000, 0.000000000000000000, 0.000000000000000000, 0.000000000000000000 ) ;
#450 = VERTEX_POINT ( 'NONE', #268 ) ;
#451 = CYLINDRICAL_SURFACE ( 'NONE', #158, 0.02992125984251969156 ) ;
#452 = ORIENTED_EDGE ( 'NONE', *, *, #353, .T. ) ;
#453 = CYLINDRICAL_SURFACE ( 'NONE', #10, 0.03937007874015747977 ) ;
#454 = FACE_OUTER_BOUND ( 'NONE', #21, .T. ) ;
#455 = VERTEX_POINT ( 'NONE', #176 ) ;
#456 = DIRECTION ( 'NONE',  ( 0.000000000000000000, -1.000000000000000000, 0.000000000000000000 ) ) ;
#457 = AXIS2_PLACEMENT_3D ( 'NONE', #547, #596, #186 ) ;
#458 = CARTESIAN_POINT ( 'NONE',  ( 0.000000000000000000, 0.2362008038188976589, 0.02519750622047244384 ) ) ;
#459 = ORIENTED_EDGE ( 'NONE', *, *, #444, .T. ) ;
#460 = FACE_OUTER_BOUND ( 'NONE', #117, .T. ) ;
#461 = LINE ( 'NONE', #52, #180 ) ;
#462 = LINE ( 'NONE', #144, #382 ) ;
#463 = EDGE_LOOP ( 'NONE', ( #478, #575, #298, #359 ) ) ;
#464 = CARTESIAN_POINT ( 'NONE',  ( 0.000000000000000000, 0.05224001791338582501, 0.000000000000000000 ) ) ;
#465 =( CONVERSION_BASED_UNIT ( 'INCH', #471 ) LENGTH_UNIT ( ) NAMED_UNIT ( #230 ) );
#466 = EDGE_CURVE ( 'NONE', #97, #341, #362, .T. ) ;
#467 = CARTESIAN_POINT ( 'NONE',  ( 0.000000000000000000, 0.05224001791338582501, -0.02992125984251969156 ) ) ;
#468 = VECTOR ( 'NONE', #221, 39.37007874015748854 ) ;
#469 = DIRECTION ( 'NONE',  ( 0.000000000000000000, -1.000000000000000000, 0.000000000000000000 ) ) ;
#470 = CARTESIAN_POINT ( 'NONE',  ( 0.000000000000000000, 0.06090143523622046362, -0.02952755905511811677 ) ) ;
#471 = LENGTH_MEASURE_WITH_UNIT ( LENGTH_MEASURE( 0.02539999999999999897 ), #513 );
#472 = ORIENTED_EDGE ( 'NONE', *, *, #584, .F. ) ;
#473 = EDGE_CURVE ( 'NONE', #396, #597, #510, .T. ) ;
#474 = CARTESIAN_POINT ( 'NONE',  ( 3.616083068348484413E-18, 0.05224001791338582501, 0.02952755905511811677 ) ) ;
#475 = ORIENTED_EDGE ( 'NONE', *, *, #566, .F. ) ;
#476 = DIRECTION ( 'NONE',  ( 0.000000000000000000, -1.000000000000000000, 0.000000000000000000 ) ) ;
#477 = FACE_OUTER_BOUND ( 'NONE', #71, .T. ) ;
#478 = ORIENTED_EDGE ( 'NONE', *, *, #9, .T. ) ;
#479 = CARTESIAN_POINT ( 'NONE',  ( 0.05574845484251965411, 0.2364693717322835509, -0.02787422744094489660 ) ) ;
#480 = EDGE_CURVE ( 'NONE', #29, #280, #332, .T. ) ;
#481 = CIRCLE ( 'NONE', #92, 0.01692913385826771283 ) ;
#482 = ORIENTED_EDGE ( 'NONE', *, *, #522, .F. ) ;
#483 = DIRECTION ( 'NONE',  ( 0.000000000000000000, -1.000000000000000000, 0.000000000000000000 ) ) ;
#484 = ORIENTED_EDGE ( 'NONE', *, *, #357, .T. ) ;
#485 = DIRECTION ( 'NONE',  ( -9.637352644315592778E-16, -1.000000000000000000, 0.000000000000000000 ) ) ;
#486 = DIRECTION ( 'NONE',  ( 0.000000000000000000, 0.000000000000000000, -1.000000000000000000 ) ) ;
#487 = CARTESIAN_POINT ( 'NONE',  ( 0.000000000000000000, 0.2362204724497857233, 0.02559055116881802164 ) ) ;
#488 = PLANE ( 'NONE',  #68 ) ;
#489 = VERTEX_POINT ( 'NONE', #44 ) ;
#490 = CARTESIAN_POINT ( 'NONE',  ( 1.631520329549489917E-17, 0.3149606299212598381, 0.000000000000000000 ) ) ;
#491 = AXIS2_PLACEMENT_3D ( 'NONE', #118, #64, #303 ) ;
#492 = EDGE_LOOP ( 'NONE', ( #384, #17, #355, #534 ) ) ;
#493 = FACE_OUTER_BOUND ( 'NONE', #578, .T. ) ;
#494 = ORIENTED_EDGE ( 'NONE', *, *, #73, .F. ) ;
#495 = DIRECTION ( 'NONE',  ( 0.000000000000000000, -1.000000000000000000, 0.000000000000000000 ) ) ;
#496 = ADVANCED_FACE ( 'NONE', ( #370, #445 ), #88, .F. ) ;
#497 = CARTESIAN_POINT ( 'NONE',  ( 0.000000000000000000, 0.2345671408267716307, 0.02977645834645669537 ) ) ;
#498 = ORIENTED_EDGE ( 'NONE', *, *, #3, .T. ) ;
#499 = VECTOR ( 'NONE', #569, 39.37007874015748143 ) ;
#500 = AXIS2_PLACEMENT_3D ( 'NONE', #590, #546, #179 ) ;
#501 = CARTESIAN_POINT ( 'NONE',  ( -0.01771653543307086937, 0.2980314960629921739, 2.169649841009091110E-18 ) ) ;
#502 = CARTESIAN_POINT ( 'NONE',  ( 0.000000000000000000, 0.2345897103977755138, 0.02952755904863714823 ) ) ;
#503 = ORIENTED_EDGE ( 'NONE', *, *, #430, .F. ) ;
#504 = FACE_OUTER_BOUND ( 'NONE', #214, .T. ) ;
#505 = SURFACE_STYLE_FILL_AREA ( #238 ) ;
#506 = CARTESIAN_POINT ( 'NONE',  ( 0.000000000000000000, 0.000000000000000000, 0.000000000000000000 ) ) ;
#507 = DIRECTION ( 'NONE',  ( 0.000000000000000000, -1.000000000000000000, 0.000000000000000000 ) ) ;
#508 = FACE_BOUND ( 'NONE', #93, .T. ) ;
#509 = TOROIDAL_SURFACE ( 'NONE', #457, 0.0007874015748031497038, 0.01692913385826771283 ) ;
#510 = CIRCLE ( 'NONE', #594, 0.03937007874015747977 ) ;
#511 = CARTESIAN_POINT ( 'NONE',  ( -0.05955291673228347432, 0.2345671408267716584, 0.02977645834645669537 ) ) ;
#512 = CARTESIAN_POINT ( 'NONE',  ( -0.03984251968503937230, 0.01968503937007873988, 0.03984251968503937230 ) ) ;
#513 =( LENGTH_UNIT ( ) NAMED_UNIT ( * ) SI_UNIT ( $, .METRE. ) );
#514 = EDGE_CURVE ( 'NONE', #489, #127, #217, .T. ) ;
#515 = DIRECTION ( 'NONE',  ( 0.000000000000000000, -1.000000000000000000, 0.000000000000000000 ) ) ;
#516 = VERTEX_POINT ( 'NONE', #404 ) ;
#517 = CONICAL_SURFACE ( 'NONE', #7, 0.02952755905511811677, 0.08314123188844138590 ) ;
#518 = AXIS2_PLACEMENT_3D ( 'NONE', #576, #342, #579 ) ;
#519 = FACE_BOUND ( 'NONE', #225, .T. ) ;
#520 = ORIENTED_EDGE ( 'NONE', *, *, #466, .F. ) ;
#521 = CARTESIAN_POINT ( 'NONE',  ( 0.000000000000000000, 0.05617702578740156605, -0.02992125984251969156 ) ) ;
#522 = EDGE_CURVE ( 'NONE', #341, #97, #542, .T. ) ;
#523 = ORIENTED_EDGE ( 'NONE', *, *, #411, .F. ) ;
#524 = CARTESIAN_POINT ( 'NONE',  ( 0.000000000000000000, 0.06090143523622046362, 0.000000000000000000 ) ) ;
#525 = VERTEX_POINT ( 'NONE', #223 ) ;
#526 = CARTESIAN_POINT ( 'NONE',  ( 0.000000000000000000, 0.2362008038188976589, 0.02519750622047244384 ) ) ;
#527 = LINE ( 'NONE', #250, #103 ) ;
#528 = CIRCLE ( 'NONE', #149, 0.02952755905511811330 ) ;
#529 = CONICAL_SURFACE ( 'NONE', #112, 0.02952755905511811677, 0.08314123188844138590 ) ;
#530 = VERTEX_POINT ( 'NONE', #41 ) ;
#531 = FACE_OUTER_BOUND ( 'NONE', #240, .T. ) ;
#532 = CIRCLE ( 'NONE', #233, 0.03937007874015747977 ) ;
#533 = CARTESIAN_POINT ( 'NONE',  ( -0.0007968503937007875631, 0.3149606299212598381, 0.0007968503937007875631 ) ) ;
#534 = ORIENTED_EDGE ( 'NONE', *, *, #480, .T. ) ;
#535 = CARTESIAN_POINT ( 'NONE',  ( 0.000000000000000000, 0.05617702578739911662, 0.000000000000000000 ) ) ;
#536 = EDGE_CURVE ( 'NONE', #100, #450, #45, .T. ) ;
#537 = DIRECTION ( 'NONE',  ( 0.000000000000000000, 0.000000000000000000, -1.000000000000000000 ) ) ;
#538 = ORIENTED_EDGE ( 'NONE', *, *, #121, .F. ) ;
#539 = DIRECTION ( 'NONE',  ( 0.000000000000000000, -1.000000000000000000, 0.000000000000000000 ) ) ;
#540 = ORIENTED_EDGE ( 'NONE', *, *, #188, .F. ) ;
#541 = AXIS2_PLACEMENT_3D ( 'NONE', #138, #136, #34 ) ;
#542 = CIRCLE ( 'NONE', #343, 0.0007874015748031507880 ) ;
#543 = DIRECTION ( 'NONE',  ( 0.000000000000000000, 0.000000000000000000, -1.000000000000000000 ) ) ;
#544 = VERTEX_POINT ( 'NONE', #85 ) ;
#545 = ADVANCED_FACE ( 'NONE', ( #460 ), #451, .T. ) ;
#546 = DIRECTION ( 'NONE',  ( 9.637352644315592778E-16, 1.000000000000000000, 0.000000000000000000 ) ) ;
#547 = CARTESIAN_POINT ( 'NONE',  ( 0.000000000000000000, 0.2980314960629921739, 0.000000000000000000 ) ) ;
#548 = ORIENTED_EDGE ( 'NONE', *, *, #568, .F. ) ;
#549 = DIRECTION ( 'NONE',  ( -9.637352644315592778E-16, -1.000000000000000000, 0.000000000000000000 ) ) ;
#550 =( BOUNDED_CURVE ( )  B_SPLINE_CURVE ( 3, ( #305, #391, #383, #577 ),
 .UNSPECIFIED., .F., .T. ) 
 B_SPLINE_CURVE_WITH_KNOTS ( ( 4, 4 ),
 ( 0.000000000000000000, 1.000000000000000000 ),
 .UNSPECIFIED. ) 
 CURVE ( )  GEOMETRIC_REPRESENTATION_ITEM ( )  RATIONAL_B_SPLINE_CURVE ( ( 0.9565783029009293781, 0.3188594343003095521, 0.3188594343003095521, 0.9565783029009293781 ) ) 
 REPRESENTATION_ITEM ( '' )  );
#551 = FACE_OUTER_BOUND ( 'NONE', #570, .T. ) ;
#552 = CARTESIAN_POINT ( 'NONE',  ( 0.000000000000000000, 0.2345897103977754861, -0.02952755904863718986 ) ) ;
#553 = VECTOR ( 'NONE', #12, 39.37007874015748143 ) ;
#554 = AXIS2_PLACEMENT_3D ( 'NONE', #419, #515, #61 ) ;
#555 = ADVANCED_FACE ( 'NONE', ( #493 ), #453, .T. ) ;
#556 = AXIS2_PLACEMENT_3D ( 'NONE', #132, #184, #327 ) ;
#557 = CARTESIAN_POINT ( 'NONE',  ( 0.000000000000000000, 0.2362008038188976589, -0.02519750622047244384 ) ) ;
#558 = FILL_AREA_STYLE_COLOUR ( '', #227 ) ;
#559 = SURFACE_STYLE_USAGE ( .BOTH. , #98 ) ;
#560 = DIRECTION ( 'NONE',  ( 0.000000000000000000, -1.000000000000000000, 0.000000000000000000 ) ) ;
#561 =( CONVERSION_BASED_UNIT ( 'INCH', #196 ) LENGTH_UNIT ( ) NAMED_UNIT ( #449 ) );
#562 = TOROIDAL_SURFACE ( 'NONE', #168, 0.0007874015748031497038, 0.01692913385826771283 ) ;
#563 = AXIS2_PLACEMENT_3D ( 'NONE', #48, #560, #151 ) ;
#564 = DIRECTION ( 'NONE',  ( 0.000000000000000000, -1.000000000000000000, 0.000000000000000000 ) ) ;
#565 = PRODUCT_CONTEXT ( 'NONE', #5, 'mechanical' ) ;
#566 = EDGE_CURVE ( 'NONE', #344, #428, #532, .T. ) ;
#567 = ORIENTED_EDGE ( 'NONE', *, *, #173, .F. ) ;
#568 = EDGE_CURVE ( 'NONE', #259, #206, #441, .T. ) ;
#569 = DIRECTION ( 'NONE',  ( 0.000000000000000000, -1.000000000000000000, 0.000000000000000000 ) ) ;
#570 = EDGE_LOOP ( 'NONE', ( #8, #459, #414, #163 ) ) ;
#571 = LINE ( 'NONE', #521, #447 ) ;
#572 =( GEOMETRIC_REPRESENTATION_CONTEXT ( 3 ) GLOBAL_UNCERTAINTY_ASSIGNED_CONTEXT ( ( #4 ) ) GLOBAL_UNIT_ASSIGNED_CONTEXT ( ( #561, #333, #336 ) ) REPRESENTATION_CONTEXT ( 'NONE', 'WORKASPACE' ) );
#573 = ORIENTED_EDGE ( 'NONE', *, *, #3, .F. ) ;
#574 = CARTESIAN_POINT ( 'NONE',  ( 0.000000000000000000, 0.2980314960629921739, 0.000000000000000000 ) ) ;
#575 = ORIENTED_EDGE ( 'NONE', *, *, #188, .T. ) ;
#576 = CARTESIAN_POINT ( 'NONE',  ( -0.0007874015748031497038, 0.2980314960629921739, 9.642888182262624107E-20 ) ) ;
#577 = CARTESIAN_POINT ( 'NONE',  ( 0.000000000000000000, 0.2362204724497856956, 0.02559055116881802164 ) ) ;
#578 = EDGE_LOOP ( 'NONE', ( #76, #218, #160, #567 ) ) ;
#579 = DIRECTION ( 'NONE',  ( 1.000000000000000000, 0.000000000000000000, -1.224646799147353207E-16 ) ) ;
#580 = AXIS2_PLACEMENT_3D ( 'NONE', #591, #181, #543 ) ;
#581 = VECTOR ( 'NONE', #539, 39.37007874015748143 ) ;
#582 = ORIENTED_EDGE ( 'NONE', *, *, #435, .F. ) ;
#583 = FACE_OUTER_BOUND ( 'NONE', #276, .T. ) ;
#584 = EDGE_CURVE ( 'NONE', #439, #525, #70, .T. ) ;
#585 = DIRECTION ( 'NONE',  ( 0.000000000000000000, 0.000000000000000000, -1.000000000000000000 ) ) ;
#586 = CARTESIAN_POINT ( 'NONE',  ( -5.956946319517907296E-17, 0.2362204724409449064, 0.000000000000000000 ) ) ;
#587 = DIRECTION ( 'NONE',  ( 0.000000000000000000, -1.000000000000000000, 0.000000000000000000 ) ) ;
#588 = CARTESIAN_POINT ( 'NONE',  ( -0.03984251968503937230, 0.000000000000000000, -0.03984251968503937230 ) ) ;
#589 = ORIENTED_EDGE ( 'NONE', *, *, #334, .T. ) ;
#590 = CARTESIAN_POINT ( 'NONE',  ( 0.000000000000000000, 0.2980314960629921739, 0.000000000000000000 ) ) ;
#591 = CARTESIAN_POINT ( 'NONE',  ( 0.000000000000000000, 0.000000000000000000, 0.000000000000000000 ) ) ;
#592 = AXIS2_PLACEMENT_3D ( 'NONE', #247, #237, #143 ) ;
#593 = DIRECTION ( 'NONE',  ( 0.000000000000000000, 0.000000000000000000, -1.000000000000000000 ) ) ;
#594 = AXIS2_PLACEMENT_3D ( 'NONE', #281, #456, #356 ) ;
#595 = PRODUCT_DEFINITION_SHAPE ( 'NONE', 'NONE',  #378 ) ;
#596 = DIRECTION ( 'NONE',  ( -9.637352644315592778E-16, -1.000000000000000000, 0.000000000000000000 ) ) ;
#597 = VERTEX_POINT ( 'NONE', #107 ) ;
#598 = CARTESIAN_POINT ( 'NONE',  ( 0.000000000000000000, 0.01968503937007873988, 0.000000000000000000 ) ) ;
#599 = CARTESIAN_POINT ( 'NONE',  ( -0.05039501248031496433, 0.2362008038188976589, -0.02519750622047244384 ) ) ;
ENDSEC;
END-ISO-10303-21;
